<svg width="22" height="24" viewBox="0 0 22 24" fill="none" xmlns="http://www.w3.org/2000/svg">
<path d="M2 6.44444H20M8.75 10.8889V17.5556M13.25 10.8889V17.5556M3.125 6.44444L4.25 19.7778C4.25 20.3671 4.48705 20.9324 4.90901 21.3491C5.33097 21.7659 5.90326 22 6.5 22H15.5C16.0967 22 16.669 21.7659 17.091 21.3491C17.5129 20.9324 17.75 20.3671 17.75 19.7778L18.875 6.44444M7.625 6.44444V3.11111C7.625 2.81643 7.74353 2.53381 7.9545 2.32544C8.16548 2.11706 8.45163 2 8.75 2H13.25C13.5484 2 13.8345 2.11706 14.0455 2.32544C14.2565 2.53381 14.375 2.81643 14.375 3.11111V6.44444" stroke="white" stroke-width="3" stroke-linecap="round" stroke-linejoin="round"/>
</svg>
