<svg width="48" height="48" viewBox="0 0 48 48" fill="none" xmlns="http://www.w3.org/2000/svg">
<rect width="48" height="48" fill="#FFD6D6"/>
<path d="M15 18.4444H33M21.75 22.8889V29.5556M26.25 22.8889V29.5556M16.125 18.4444L17.25 31.7778C17.25 32.3671 17.4871 32.9324 17.909 33.3491C18.331 33.7659 18.9033 34 19.5 34H28.5C29.0967 34 29.669 33.7659 30.091 33.3491C30.5129 32.9324 30.75 32.3671 30.75 31.7778L31.875 18.4444M20.625 18.4444V15.1111C20.625 14.8164 20.7435 14.5338 20.9545 14.3254C21.1655 14.1171 21.4516 14 21.75 14H26.25C26.5484 14 26.8345 14.1171 27.0455 14.3254C27.2565 14.5338 27.375 14.8164 27.375 15.1111V18.4444" stroke="#B90000" stroke-width="2" stroke-linecap="round" stroke-linejoin="round"/>
</svg>
