<svg width="48" height="48" viewBox="0 0 48 48" fill="none" xmlns="http://www.w3.org/2000/svg">
<rect width="48" height="48" fill="#D6E6FF"/>
<path d="M18.3529 18.4707H17.2353C16.6424 18.4707 16.0739 18.7062 15.6547 19.1254C15.2355 19.5446 15 20.1131 15 20.706V30.7647C15 31.3576 15.2355 31.9261 15.6547 32.3453C16.0739 32.7645 16.6424 33 17.2353 33H27.294C27.8869 33 28.4554 32.7645 28.8746 32.3453C29.2938 31.9261 29.5293 31.3576 29.5293 30.7647V29.6471M28.4117 16.2354L31.7646 19.5883M33.3125 18.0069C33.7527 17.5667 34 16.9697 34 16.3472C34 15.7247 33.7527 15.1276 33.3125 14.6875C32.8724 14.2473 32.2753 14 31.6528 14C31.0303 14 30.4333 14.2473 29.9931 14.6875L20.5882 24.0589V27.4118H23.9411L33.3125 18.0069Z" stroke="black" stroke-width="2" stroke-linecap="round" stroke-linejoin="round"/>
</svg>
