<svg width="24" height="24" viewBox="0 0 24 24" fill="black" xmlns="http://www.w3.org/2000/svg">
<path d="M22 6.06481V19.0822C22 19.6284 21.8171 20.0848 21.4514 20.4514C21.0856 20.8179 20.6288 21.0008 20.081 21H4.919C4.37196 21 3.91556 20.8171 3.54981 20.4514C3.18406 20.0856 3.00079 19.6288 3 19.081V3.919C3 3.37196 3.18327 2.91556 3.54981 2.54981C3.91635 2.18406 4.37275 2.00079 4.919 2H17.9352L22 6.06481ZM12.4953 16.8889C13.1531 16.8889 13.714 16.6585 14.1779 16.1977C14.6419 15.737 14.8742 15.1777 14.875 14.5198C14.8758 13.8619 14.6454 13.3006 14.1839 12.8359C13.7223 12.3712 13.163 12.1393 12.5059 12.1401C11.8489 12.1409 11.2872 12.3708 10.8209 12.83C10.3546 13.2892 10.1226 13.8493 10.125 14.5103C10.1274 15.1714 10.3577 15.7326 10.8161 16.1942C11.2745 16.6557 11.8342 16.8881 12.4953 16.8912M6.28819 8.85187H15.103V5.28937H6.28938L6.28819 8.85187Z" fill="black" fill-opacity="1"/>
</svg>
